<?xml version="1.0" encoding="utf-8"?>
<!-- Generator: Adobe Illustrator 21.0.2, SVG Export Plug-In . SVG Version: 6.00 Build 0)  -->
<svg version="1.1" id="Layer_1" xmlns="http://www.w3.org/2000/svg" xmlns:xlink="http://www.w3.org/1999/xlink" x="0px" y="0px"
	 width="43px" height="20px" viewBox="0 0 43 20" style="enable-background:new 0 0 43 20;" xml:space="preserve">
<style type="text/css">
	.st0{fill-rule:evenodd;clip-rule:evenodd;}
</style>
<g>
	<path d="M33,2c4.4,0,8,3.6,8,8c0,4.4-3.6,8-8,8H10c-4.4,0-8-3.6-8-8c0-4.4,3.6-8,8-8H33 M33,0H10C4.5,0,0,4.5,0,10
		c0,5.5,4.5,10,10,10h23c5.5,0,10-4.5,10-10C43,4.5,38.5,0,33,0L33,0z"/>
	<path class="st0" d="M10.6,5c2.8,0,5,2.2,5,5c0,2.8-2.2,5-5,5c-2.8,0-5-2.2-5-5C5.6,7.2,7.8,5,10.6,5z"/>
</g>
</svg>
